<?xml version="1.0" standalone="no"?>
<!DOCTYPE svg PUBLIC "-//W3C//DTD SVG 20010904//EN"
 "http://www.w3.org/TR/2001/REC-SVG-20010904/DTD/svg10.dtd">
<svg version="1.0" xmlns="http://www.w3.org/2000/svg"
 width="902.000000pt" height="981.000000pt" viewBox="0 0 902.000000 981.000000"
 preserveAspectRatio="xMidYMid meet">

<g transform="translate(0.000000,981.000000) scale(0.100000,-0.100000)"
fill="#000000" stroke="none">
<path d="M3405 9790 c-963 -113 -1840 -610 -2126 -1206 -76 -157 -93 -231 -93
-404 1 -134 13 -219 27 -180 3 8 20 58 37 110 43 127 136 307 215 412 132 175
350 356 575 476 597 319 1454 380 2105 152 190 -67 418 -201 606 -358 80 -66
739 -698 739 -708 0 -2 -35 13 -77 33 -43 19 -178 80 -301 134 -325 144 -462
219 -756 416 -338 226 -613 337 -961 389 -161 24 -462 24 -640 0 -253 -34
-667 -129 -771 -176 -64 -29 -274 -149 -274 -156 0 -15 55 -109 94 -161 135
-179 420 -356 766 -475 324 -111 598 -156 1175 -193 607 -39 974 -98 1329
-217 326 -109 503 -207 672 -373 61 -60 117 -120 123 -132 11 -22 11 -22 -26
-6 -21 8 -64 28 -95 44 -290 146 -673 243 -1378 349 -473 70 -636 97 -955 159
-170 33 -422 81 -559 106 -375 69 -534 113 -701 197 -222 111 -390 284 -476
487 -15 36 -31 67 -36 68 -9 2 -117 -146 -151 -209 -20 -36 -23 -53 -18 -105
29 -336 292 -643 751 -875 206 -104 466 -200 695 -258 276 -69 373 -79 850
-90 524 -12 694 -25 955 -71 473 -85 824 -278 1051 -578 76 -100 180 -305 223
-441 36 -110 95 -352 145 -595 68 -324 89 -389 168 -514 123 -197 335 -384
567 -500 34 -18 61 -35 58 -38 -19 -18 -255 81 -354 148 -78 52 -214 197 -282
298 -116 175 -150 254 -301 711 -59 179 -129 375 -156 435 -213 476 -543 749
-1035 859 -203 45 -400 66 -999 106 -364 25 -540 43 -716 75 -699 129 -1279
514 -1683 1118 -29 43 -55 77 -57 74 -10 -10 40 -168 80 -251 56 -118 124
-212 238 -332 344 -360 779 -591 1316 -700 251 -51 469 -75 897 -99 746 -43
1028 -94 1309 -238 166 -85 328 -220 440 -367 53 -68 151 -228 144 -235 -2 -3
-26 24 -51 59 -208 283 -515 479 -877 560 -282 63 -457 75 -1225 86 -745 10
-748 11 -1010 156 -160 89 -399 233 -510 307 -357 239 -574 478 -739 817 l-71
145 -8 -65 c-21 -168 15 -348 104 -519 167 -324 482 -620 909 -857 58 -32 141
-86 185 -120 157 -120 297 -205 515 -314 120 -59 130 -67 234 -173 260 -268
409 -602 447 -1005 13 -138 7 -264 -24 -462 -32 -212 -32 -546 1 -674 46 -184
158 -344 302 -431 l60 -36 0 -142 c0 -191 22 -298 89 -432 139 -277 456 -497
789 -545 48 -7 139 -10 219 -8 114 4 152 10 219 31 266 88 425 324 412 615 -5
118 -32 178 -115 259 -161 158 -388 156 -417 -2 -7 -34 2 -64 10 -40 13 34 47
75 67 80 71 18 122 -61 122 -190 0 -71 -4 -88 -34 -148 -89 -182 -303 -298
-522 -284 -170 11 -309 132 -395 345 -46 114 -74 394 -41 420 6 5 39 17 72 27
63 17 189 81 234 117 19 15 21 19 6 13 -159 -63 -325 -97 -325 -66 0 8 14 89
31 180 31 164 65 286 192 696 36 116 75 247 86 293 70 274 66 531 -11 752 -64
180 -146 307 -301 468 -55 56 -94 102 -87 102 29 0 379 -179 393 -201 9 -13
34 -121 57 -239 113 -586 232 -956 421 -1319 135 -258 264 -444 418 -601 190
-193 447 -351 1129 -695 217 -109 399 -208 436 -236 196 -148 283 -396 232
-661 -41 -213 -133 -392 -286 -552 -72 -76 -390 -358 -820 -728 -113 -96 -213
-185 -224 -197 -25 -27 -18 -80 22 -163 73 -155 191 -244 402 -303 83 -24 108
-26 200 -22 87 3 132 12 262 50 160 47 230 75 223 87 -2 4 -33 17 -67 30 -120
43 -206 120 -229 203 -29 107 16 263 121 425 33 51 145 200 248 330 239 301
272 346 329 451 26 47 51 89 56 92 5 4 55 10 111 14 261 18 442 84 620 225
245 194 344 427 361 845 l7 160 48 65 c192 260 272 632 205 961 -33 163 -65
265 -115 369 -83 171 -197 317 -333 429 -121 98 -207 148 -472 272 -182 86
-361 186 -385 214 -9 10 -2 14 32 20 157 25 366 95 498 167 68 37 210 127 210
133 0 2 -62 -25 -138 -60 -239 -109 -398 -155 -584 -170 -84 -6 -88 -6 -112
18 -39 39 -68 146 -68 257 0 116 23 220 87 385 55 141 98 303 115 432 16 116
8 370 -14 473 -82 377 -306 698 -646 924 -177 118 -318 186 -562 272 -223 79
-319 134 -446 258 -75 73 -223 260 -357 451 -215 307 -396 492 -644 656 -365
242 -824 371 -1311 368 -115 -1 -257 -9 -345 -19z m2712 -2102 c309 -213 555
-502 733 -857 115 -231 125 -289 111 -706 -6 -176 -14 -363 -17 -415 l-6 -95
-58 63 c-112 122 -164 263 -225 617 -75 430 -107 559 -176 697 -99 201 -350
529 -573 749 -64 64 -116 119 -116 123 0 12 248 -121 327 -176z m-2535 -1797
c256 -119 512 -310 610 -454 52 -76 101 -183 124 -272 16 -57 19 -104 18 -260
-1 -281 -6 -308 -255 -1225 -29 -107 -54 -197 -55 -199 -7 -9 -94 52 -129 90
-143 159 -202 556 -145 984 11 88 26 198 32 245 15 125 4 423 -21 537 -52 239
-133 400 -277 552 -35 38 -64 71 -64 75 0 3 21 -4 48 -18 26 -13 77 -38 114
-55z m2886 -173 c113 -144 240 -250 402 -337 52 -29 98 -57 102 -64 4 -7 17
-43 29 -82 92 -304 315 -545 651 -705 57 -26 207 -85 333 -130 450 -159 481
-174 596 -290 61 -61 86 -97 123 -171 71 -144 90 -226 89 -394 0 -156 -16
-237 -73 -361 l-31 -69 -31 50 c-134 211 -191 290 -265 366 l-83 86 -15 91
c-27 165 -86 292 -199 424 -175 204 -442 368 -815 499 -141 49 -220 92 -306
165 -70 60 -202 229 -283 365 -104 173 -307 619 -282 619 4 0 30 -28 58 -62z
m-1473 -197 c130 -117 265 -294 358 -471 31 -58 94 -199 140 -315 178 -445
327 -682 580 -921 116 -109 114 -109 -43 -3 -535 361 -890 824 -1040 1355 -28
101 -80 364 -80 407 0 23 5 20 85 -52z m1019 -219 c98 -295 217 -561 315 -699
98 -139 240 -262 386 -335 90 -46 187 -75 470 -144 413 -101 547 -149 701
-255 80 -56 142 -115 109 -105 -75 22 -279 61 -510 96 -148 22 -310 50 -360
62 -498 115 -817 395 -980 859 -34 96 -195 643 -195 661 0 4 3 8 8 8 4 0 29
-67 56 -148z m2059 -1475 c19 -23 42 -55 52 -72 l17 -30 -28 31 c-16 17 -54
60 -84 95 -44 51 -49 59 -23 41 18 -13 48 -42 66 -65z m-1471 -346 c174 -69
306 -106 643 -182 288 -64 406 -99 522 -154 103 -49 144 -76 222 -149 74 -71
127 -145 172 -241 59 -126 61 -123 -82 -196 -66 -34 -119 -63 -117 -64 2 -2
59 12 127 31 68 19 126 33 129 30 10 -11 5 -172 -7 -226 -20 -85 -95 -231
-160 -313 -66 -82 -123 -132 -208 -183 -59 -35 -162 -78 -170 -70 -2 2 7 39
20 83 72 230 67 479 -15 711 -75 215 -174 360 -308 452 -31 21 -197 115 -370
209 -345 189 -609 342 -610 354 0 4 31 -9 70 -28 38 -19 102 -48 142 -64z"/>
<path d="M1059 7833 c-197 -276 -302 -483 -361 -711 -24 -93 -31 -146 -35
-257 -9 -240 21 -356 188 -711 123 -264 145 -324 161 -434 22 -155 -25 -295
-129 -390 -78 -72 -147 -105 -519 -250 -154 -59 -224 -105 -276 -178 -58 -85
-78 -156 -78 -289 0 -107 22 -256 42 -278 4 -5 8 10 8 35 2 186 83 360 208
447 78 55 135 79 337 142 94 29 203 68 243 87 140 64 246 204 288 379 12 54
15 100 11 195 -8 196 -50 325 -208 645 -101 205 -134 307 -151 470 -14 134 -2
272 37 433 35 143 81 264 197 509 55 117 98 218 96 224 -2 6 -29 -25 -59 -68z"/>
<path d="M1119 7717 c-192 -357 -279 -631 -279 -876 0 -208 57 -437 163 -646
30 -61 108 -209 174 -330 184 -341 233 -456 233 -555 0 -146 -90 -217 -390
-310 -341 -105 -399 -124 -460 -155 -185 -93 -298 -229 -351 -422 -17 -60 -22
-106 -22 -198 1 -150 21 -250 108 -530 130 -417 155 -550 121 -640 -30 -77
-90 -114 -236 -145 l-85 -17 50 -23 c119 -54 279 -50 402 10 166 82 252 234
253 448 0 65 -12 139 -56 335 -49 220 -55 263 -52 337 8 189 86 257 474 410
98 38 183 70 188 70 6 0 -37 -28 -94 -62 -148 -88 -229 -148 -288 -213 -95
-104 -151 -221 -172 -360 -21 -138 -12 -192 100 -620 55 -211 31 -335 -87
-454 -32 -31 -89 -76 -128 -99 l-70 -42 161 0 162 0 6 78 c4 42 20 322 36 622
36 664 43 699 148 865 114 179 270 267 498 282 183 12 310 -15 741 -157 149
-50 280 -90 290 -90 31 0 142 72 205 133 70 69 122 145 167 250 19 43 38 77
44 77 5 0 7 -21 4 -52 -4 -29 -9 -120 -12 -203 -3 -82 -8 -167 -11 -187 -6
-36 -4 -38 23 -38 56 0 127 34 180 86 72 71 95 144 101 319 5 155 -14 359 -33
351 -7 -2 -71 -49 -141 -103 -254 -195 -368 -259 -540 -299 -86 -20 -152 -8
-207 37 -50 41 -66 75 -77 161 -11 89 -29 115 -110 154 -85 41 -100 62 -100
135 l0 58 -47 24 c-75 37 -93 72 -93 181 0 106 -10 128 -68 147 -20 6 -69 25
-109 41 -102 43 -102 43 -62 264 40 218 48 378 25 479 -10 44 -54 147 -115
275 -105 216 -254 584 -340 835 -50 149 -131 447 -131 485 0 11 -3 20 -7 20
-5 0 -42 -64 -84 -143z m907 -2916 c-23 -44 -107 -114 -179 -149 -61 -30 -140
-54 -125 -37 12 13 302 213 311 214 4 1 1 -12 -7 -28z"/>
<path d="M1842 2715 c-40 -29 -123 -147 -167 -240 -66 -136 -79 -196 -80 -360
0 -134 2 -147 48 -325 66 -259 87 -394 80 -506 l-6 -91 114 24 c140 30 265 28
554 -12 642 -87 1200 -267 1560 -502 133 -87 174 -122 343 -287 l144 -141 28
35 c54 67 557 716 651 840 91 120 210 312 244 394 23 55 12 91 -53 159 -68 71
-152 127 -297 200 -374 187 -706 269 -1095 269 -277 1 -503 -37 -797 -132 -94
-31 -127 -38 -146 -31 -14 5 -175 122 -358 258 -454 338 -495 367 -591 415
-97 48 -143 56 -176 33z"/>
</g>
</svg>
